<?xml version="1.0" encoding="UTF-8" standalone="no"?>
<!-- Created with Inkscape (http://www.inkscape.org/) -->

<svg
   width="133.22514"
   height="151.95389"
   viewBox="0 0 133.22514 151.95389"
   version="1.1"
   id="svg1"
   xmlns:inkscape="http://www.inkscape.org/namespaces/inkscape"
   xmlns:sodipodi="http://sodipodi.sourceforge.net/DTD/sodipodi-0.dtd"
   xmlns="http://www.w3.org/2000/svg"
   xmlns:svg="http://www.w3.org/2000/svg">
  <sodipodi:namedview
     id="namedview1"
     pagecolor="#ffffff"
     bordercolor="#000000"
     borderopacity="0.25"
     inkscape:showpageshadow="2"
     inkscape:pageopacity="0.0"
     inkscape:pagecheckerboard="0"
     inkscape:deskcolor="#d1d1d1"
     inkscape:document-units="px" />
  <defs
     id="defs1" />
  <g
     inkscape:label="Capa 1"
     inkscape:groupmode="layer"
     id="layer1"
     transform="translate(-23.387424,-14.023051)">
    <g
       id="g22"
       transform="matrix(1.2021691,0,0,1.2021691,-37.727578,-70.13559)">
      <path
         d="m 106.70809,130.66239 c -0.023,0.0234 -0.0546,0.0436 -0.0779,0.0668 -0.73767,0.73577 -1.64915,1.42326 -2.62947,2.08687 -0.271,0.18348 -0.51916,0.37555 -0.80414,0.55372 -0.0908,0.0568 -0.19148,0.11069 -0.28382,0.16695 -0.18687,0.11269 -0.38025,0.22078 -0.57319,0.33112 -2.20147,1.27155 -4.783455,2.36708 -7.529465,3.31118 -0.191931,0.0655 -0.387994,0.12523 -0.581544,0.18921 -2.791048,0.92818 -5.7039,1.68431 -8.600727,2.26496 -0.126707,0.0257 -0.251922,0.0502 -0.37842,0.0751 -2.535027,0.49544 -4.990914,0.85614 -7.290166,1.07406 -0.669479,0.0654 -1.324674,0.1228 -1.958884,0.16416 -0.393753,0.0245 -0.774045,0.046 -1.151958,0.0613 -0.909716,0.0393 -1.769268,0.052 -2.571035,0.0362 -0.07759,-10e-4 -0.17397,0.006 -0.250426,0.003 -0.02858,-8.2e-4 -0.05227,-0.004 -0.08069,-0.006 -0.319207,-0.01 -0.603372,-0.0313 -0.901533,-0.0501 -0.308649,-0.0195 -0.61397,-0.0405 -0.898749,-0.0695 -0.279428,-0.0288 -0.541452,-0.0644 -0.795797,-0.103 -0.315554,-0.0472 -0.602313,-0.10243 -0.876489,-0.16417 -0.162634,-0.0372 -0.334165,-0.0715 -0.481374,-0.11412 -0.412643,-0.11753 -0.781005,-0.24952 -1.060134,-0.40903 -0.238473,-0.19425 -0.459793,-0.39754 -0.667801,-0.60937 -1.643558,-1.64842 -2.474984,-3.80461 -2.732421,-6.15213 -0.462478,-4.21721 2.774157,-12.65483 2.774157,-12.65483 0,0 -4.065273,-1.44047 -6.216118,-1.4469 -2.980481,0.004 -5.884698,0.94296 -8.302998,2.68512 2.83543,3.80544 8.597945,11.54183 8.597943,11.54183 0,0 -2.061715,9.0184 -1.970013,13.59255 0.0917,4.57413 1.82355,8.61531 1.727937,12.82456 -0.06578,2.89589 -2.034986,5.22593 -2.039578,7.90233 -3.26e-4,15.26519 21.726808,27.64119 48.526903,27.64141 26.8002,-2.2e-4 48.52723,-12.37616 48.52691,-27.64141 -0.001,-2.68006 -1.96972,-5.01395 -2.0368,-7.91346 -0.0996,-4.3078 1.72778,-8.43942 1.77245,-12.88022 0.0447,-4.44077 -2.15921,-13.57306 -2.15921,-13.57306 0,0 5.33607,-7.08601 7.97465,-10.59021 -2.60247,-2.31022 -5.96109,-3.58714 -9.44104,-3.58944 -1.58504,0.0147 -4.64956,0.8264 -4.64956,0.8264 0,0 0.56257,1.36254 1.0824,2.66565 0.76982,1.71109 1.35596,3.42153 1.71401,4.97233 0.13762,0.5196 0.25094,1.00996 0.31164,1.42742 0.21447,1.47637 0.2726,2.89708 0.16974,4.20993 -0.0299,0.38214 -0.0735,0.75596 -0.13079,1.11858 -0.11454,0.72524 -0.28404,1.40786 -0.50919,2.03957 -0.22485,0.63091 -0.50626,1.21089 -0.84309,1.72794 -0.50613,0.77633 -1.13979,1.41399 -1.90324,1.87541 -1.60797,0.97184 -4.08724,1.24773 -7.08149,1.11021 -0.66747,-0.0306 -1.43688,-0.11553 -2.19261,-0.19477 -5.43879,-0.38484 -12.19078,-1.70697 -18.17811,-3.73412 -1.83496,-0.51028 -3.22098,-0.94019 -3.79812,-1.17978 -1.88725,-0.67827 -3.6527,-1.62557 -5.28954,-2.76304 -0.79239,-0.55063 -1.54368,-1.15921 -2.26774,-1.80027 -0.35417,-0.29737 -0.69055,-0.59948 -0.99336,-0.9071 z"
         style="fill:#000000;fill-opacity:1;stroke:#000000;stroke-width:1.89952;stroke-linejoin:round;paint-order:markers fill stroke"
         id="path54" />
      <path
         d="m 107.23121,98.443756 c 2.52026,1.660414 6.62561,8.751654 21.87605,5.737524 3.4191,-1.01511 6.76542,-2.85678 9.66086,-5.818225 -8.8252,-8.545409 -22.76542,-8.534081 -31.57587,0.02782 0.0107,0.01832 0.028,0.03458 0.0389,0.05287 z"
         style="fill:#dc0000;fill-opacity:0;stroke:#000000;stroke-width:1.89952;stroke-linejoin:round;paint-order:markers fill stroke;stop-color:#000000"
         id="path50"
         sodipodi:nodetypes="ccccsc" />
      <path
         d="m 90.40261,91.735134 c -5.847508,0.03855 -11.674314,2.326793 -16.102362,6.836617 2.690844,2.717549 5.945245,4.684299 9.432694,5.815439 0.02134,-0.011 0.04265,-0.0224 0.064,-0.0334 1.573057,0.5191 3.197704,0.85841 4.841561,1.02953 0.29481,0.0281 0.589093,0.0503 0.884836,0.0668 0.269033,0.0176 0.537161,0.0392 0.806928,0.0473 0.266629,0.005 0.534505,-0.0124 0.801362,-0.0167 5.823086,-0.19109 11.360571,-2.56857 15.498561,-6.680784 V 98.402018 C 102.11836,93.907705 96.250117,91.696577 90.40261,91.735134 Z"
         style="fill:#000000;fill-opacity:1;stroke:#000000;stroke-width:1.89952;stroke-linejoin:round;paint-order:markers fill stroke;stop-color:#000000"
         id="path52" />
      <path
         d="m 98.547005,70.955378 -8.252913,5.656835 c 0.748959,5.339039 4.058876,9.975623 8.865064,12.418324 2.298374,1.242514 4.858984,1.921528 7.471034,1.981145 2.6415,-0.0584 5.23043,-0.750232 7.54893,-2.017316 4.76666,-2.454734 8.04361,-7.072362 8.78716,-12.382153 l -8.25292,-5.656835 -2.61833,5.698573 -5.46484,-5.698573 -5.46485,5.698573 z m 8.083185,6.563932 c 1.91296,6.23e-4 3.46359,1.551255 3.46422,3.464221 -6.3e-4,1.912963 -1.55126,3.463596 -3.46422,3.464219 -1.91297,-6.23e-4 -3.4636,-1.551256 -3.46423,-3.464219 6.3e-4,-1.912966 1.55126,-3.463598 3.46423,-3.464221 z"
         style="opacity:1;fill:#000000;fill-opacity:1;stroke:#000000;stroke-width:1.89952;stroke-linejoin:round;paint-order:markers fill stroke"
         id="path53" />
      <path
         d="m 105.80656,99.907354 c -0.0707,0.07868 -0.14469,0.154076 -0.21425,0.233726 -4.07083,4.7798 -6.104995,11.27814 -5.26172,17.69674 0.0539,0.37152 0.1032,0.74475 0.1753,1.11301 0.0293,0.15883 0.0673,0.31724 0.10017,0.4758 0.29264,1.3425 0.69534,2.66058 1.22708,3.93446 v 0.003 c 0.5581,1.33504 1.24508,2.61203 2.04514,3.81759 0.0889,0.13221 0.18877,0.26117 0.28104,0.39233 0.31696,0.45486 0.64162,0.90532 0.99057,1.33561 0.27425,0.33576 0.57808,0.66082 0.87649,0.98779 0.20284,0.22247 0.39217,0.45615 0.6038,0.67059 0.0259,0.0316 0.0519,0.0631 0.0779,0.0946 8.63017,-8.64019 -4.92599,-24.18439 -0.90154,-30.755039 z"
         style="fill:none;stroke:#000000;stroke-width:1.42464px"
         id="path47" />
      <path
         d="m 107.23121,98.443756 c 3.02134,5.058154 12.71223,8.458214 21.87605,5.737524 -0.0736,-0.0388 0.0816,0.043 0.007,0.004 -9.84635,0.80702 -16.56656,-4.298719 -21.88338,-5.741859 z"
         style="fill:#000000;fill-opacity:1;stroke:#000000;stroke-width:1.42464px;stroke-opacity:1"
         id="path51"
         sodipodi:nodetypes="sccss" />
      <path
         d="m 106.70809,130.66239 c 0.31577,0.32079 0.65765,0.60988 0.99336,0.9071 2.68615,2.25532 6.79098,4.1977 11.35541,5.74309 4.71678,1.31168 12.48577,3.13729 18.17811,3.73412 4.24312,0.30026 7.68902,0.0426 9.2741,-0.91543 0.76345,-0.46143 1.3971,-1.09909 1.90323,-1.87542 0.84275,-1.29362 1.33343,-2.97641 1.48307,-4.88608 0.10286,-1.31285 0.0447,-2.73357 -0.16973,-4.20994 -0.063,-0.4335 -0.19974,-0.94274 -0.31164,-1.42742 -0.45443,-1.71634 -1.08582,-3.39753 -1.71402,-4.97233 -0.61993,-1.37792 -1.31512,-2.73228 -2.12306,-3.88995 -4.22488,-6.05365 -8.8623,-10.6042 -16.46966,-14.60634 -9.16382,2.72069 -18.85471,-0.76188 -21.87605,-5.820034 -0.0992,0.06981 -0.19808,0.128388 -0.29773,0.205905 -0.008,0.0058 -0.012,0.01368 -0.0195,0.01947 0.99334,1.02732 1.88856,2.145189 2.67399,3.339009 0.0473,0.0713 0.0955,0.14244 0.14191,0.21426 0.75624,1.16948 1.40446,2.40538 1.93662,3.69238 0.0346,0.0839 0.0665,0.16896 0.10017,0.25321 0.5295,1.31192 0.93655,2.67001 1.21596,4.05689 8.5e-4,0.004 0.002,0.0103 0.003,0.014 0.004,0.0232 0.007,0.0464 0.0111,0.0696 0.27863,1.43111 0.42023,2.8855 0.42294,4.34348 -0.0272,2.96852 -0.63009,5.90358 -1.77524,8.64247 -0.001,0.003 -0.004,0.009 -0.006,0.0114 -0.002,0.004 -0.001,0.009 -0.003,0.0114 -0.57135,1.36294 -1.27302,2.6675 -2.09522,3.89551 -0.008,0.0114 -0.0174,0.0219 -0.025,0.0333 -0.82367,1.22669 -1.76389,2.37098 -2.80755,3.41691 z"
         style="fill:none;stroke:#000000;stroke-width:1.42464px"
         id="path49"
         sodipodi:nodetypes="ccccscssccsccscccscccccccccccc" />
      <path
         d="m 105.80656,99.907354 c -4.02445,6.570646 9.53171,22.114846 0.90153,30.755036 1.04367,-1.04593 1.98388,-2.19022 2.80755,-3.41692 0.008,-0.0114 0.0173,-0.0218 0.025,-0.0333 0.8222,-1.22801 1.52387,-2.53257 2.09523,-3.89551 0.001,-0.003 0.001,-0.007 0.003,-0.0114 0.001,-0.003 0.004,-0.009 0.006,-0.0114 1.14515,-2.73889 1.74804,-5.67395 1.77524,-8.64247 -0.003,-1.45798 -0.14431,-2.91238 -0.42294,-4.34349 -0.004,-0.0232 -0.007,-0.0464 -0.0111,-0.0696 -7.4e-4,-0.004 -0.002,-0.0101 -0.003,-0.014 -0.27941,-1.38689 -0.68646,-2.74497 -1.21596,-4.0569 -0.0337,-0.0842 -0.0655,-0.16935 -0.10016,-0.25321 -0.53217,-1.287 -1.18039,-2.5229 -1.93663,-3.69238 -0.0464,-0.0718 -0.0947,-0.14293 -0.14191,-0.21425 -0.78542,-1.19383 -1.68065,-2.311691 -2.67398,-3.339012 -0.0957,0.112234 -0.19031,0.225398 -0.28382,0.339466 -0.28769,0.287828 -0.55194,0.596214 -0.82362,0.89875 z"
         style="fill:#000000;fill-opacity:1;stroke:#000000;stroke-width:1.42464px;stroke-opacity:1"
         id="path48" />
      <path
         d="m 106.63019,98.799916 c -4.43377,4.484144 -9.976932,6.593234 -15.498563,6.680794 -0.18253,0.006 -0.36231,0.029 -0.545372,0.0306 -0.08562,-0.002 -0.170429,-0.0114 -0.25599,-0.014 -0.269889,-0.005 -0.537536,-0.0322 -0.806928,-0.0473 -0.295487,-0.0193 -0.590547,-0.0361 -0.884836,-0.0668 -1.663037,-0.15866 -3.309266,-0.47838 -4.905559,-0.99614 -6.313197,3.26179 -12.215856,7.62743 -15.829677,13.66489 -0.910658,1.52141 -7.804287,15.19137 -1.638895,21.46981 0.210668,0.21129 0.429761,0.41549 0.667802,0.60938 0.280569,0.16032 0.650554,0.2906 1.060134,0.40903 0.14761,0.042 0.318091,0.0774 0.481374,0.11411 0.272101,0.0623 0.563658,0.11683 0.876489,0.16418 0.255042,0.038 0.515804,0.0744 0.795797,0.103 0.284254,0.0293 0.590256,0.0503 0.898749,0.0695 0.296988,0.0188 0.58422,0.04 0.901532,0.0501 0.104626,0.003 0.224345,6.9e-4 0.331119,0.003 0.796583,0.0175 1.66775,2.2e-4 2.571035,-0.0362 0.377617,-0.0164 0.758589,-0.0356 1.151957,-0.0613 0.630433,-0.0393 1.293414,-0.10115 1.958885,-0.16417 2.297705,-0.22449 4.759829,-0.57549 7.290165,-1.07405 0.126237,-0.0246 0.251976,-0.0497 0.378421,-0.0751 2.888428,-0.58336 5.821948,-1.34584 8.600727,-2.26497 0.193197,-0.0642 0.389929,-0.12337 0.581543,-0.1892 2.760164,-0.94333 5.329431,-2.05301 7.529461,-3.31119 0.19144,-0.11055 0.38756,-0.21812 0.5732,-0.33111 0.38458,-0.23189 0.73092,-0.47898 1.08796,-0.72067 0.97752,-0.66183 1.88847,-1.34779 2.62947,-2.08688 v -0.15303 c -0.21689,-0.22051 -0.3985,-0.45398 -0.60381,-0.67894 -0.29689,-0.32562 -0.59903,-0.64567 -0.87649,-0.98779 -0.35651,-0.43646 -0.67417,-0.88579 -0.99057,-1.33561 -0.0739,-0.10613 -0.1588,-0.20425 -0.23095,-0.31164 -0.004,-0.007 -0.01,-0.0128 -0.014,-0.0195 -0.0131,-0.0197 -0.023,-0.0414 -0.0362,-0.0612 -1.65084,-2.45521 -2.71744,-5.08098 -3.27223,-7.75485 -0.0345,-0.15849 -0.069,-0.31661 -0.10016,-0.4758 -0.0683,-0.37079 -0.12646,-0.74124 -0.1753,-1.113 -0.14731,-1.01578 -0.24956,-2.03838 -0.25878,-3.06911 0.0145,-1.47535 0.17202,-2.94583 0.47025,-4.39079 0.006,-0.0285 0.008,-0.0578 0.014,-0.0863 0.61347,-2.93285 1.79815,-5.71631 3.48648,-8.19169 l 0.003,-0.003 c 0.47583,-0.68291 1.0001,-1.32973 1.54707,-1.95611 0.0725,-0.0851 0.14886,-0.166447 0.2226,-0.250421 0.21563,-0.348885 0.49371,-0.667121 0.81521,-0.962717 z"
         style="fill:none;stroke:#000000;stroke-width:1.42464px"
         id="path46" />
      <path
         d="m 91.254056,179.96561 v 1.11857 h 30.752264 v -1.11857 z m 2.771377,1.18257 v 2.50147 l 1.382905,-2.84928 h 22.276742 l 1.54707,2.84928 v -2.50147 z"
         style="opacity:1;fill:#fdffff;stroke:#ffffff;stroke-width:1.48255;paint-order:markers fill stroke"
         id="path57"
         sodipodi:nodetypes="cccccccccccc" />
      <rect
         style="font-variation-settings:normal;opacity:1;fill:#fdffff;fill-opacity:1;stroke:#ffffff;stroke-width:1.89952;stroke-linecap:butt;stroke-linejoin:miter;stroke-miterlimit:4;stroke-dasharray:none;stroke-dashoffset:0;stroke-opacity:1;paint-order:markers fill stroke"
         id="rect56"
         width="5.3674798"
         height="14.468858"
         x="157.05595"
         y="-89.845848"
         transform="rotate(90)" />
      <rect
         style="font-variation-settings:normal;fill:#fdffff;fill-opacity:1;stroke:#ffffff;stroke-width:1.89952;stroke-linecap:butt;stroke-linejoin:miter;stroke-miterlimit:4;stroke-dasharray:none;stroke-dashoffset:0;stroke-opacity:1;paint-order:markers fill stroke"
         id="rect56-9"
         width="5.3674798"
         height="14.468858"
         x="157.05595"
         y="-138.28371"
         transform="rotate(90)" />
    </g>
  </g>
</svg>
