<?xml version="1.0" encoding="UTF-8" standalone="no"?>
<!-- Created with Inkscape (http://www.inkscape.org/) -->

<svg
   version="1.1"
   id="svg1"
   width="913.93677"
   height="755.21411"
   viewBox="0 0 913.93677 755.21411"
   sodipodi:docname="Berry_Forest.svg"
   inkscape:export-filename="Berry_Forest.svg"
   inkscape:export-xdpi="96"
   inkscape:export-ydpi="96"
   xmlns:inkscape="http://www.inkscape.org/namespaces/inkscape"
   xmlns:sodipodi="http://sodipodi.sourceforge.net/DTD/sodipodi-0.dtd"
   xmlns="http://www.w3.org/2000/svg"
   xmlns:svg="http://www.w3.org/2000/svg">
  <defs
     id="defs1" />
  <sodipodi:namedview
     id="namedview1"
     pagecolor="#ffffff"
     bordercolor="#000000"
     borderopacity="0.25"
     inkscape:showpageshadow="2"
     inkscape:pageopacity="0.0"
     inkscape:pagecheckerboard="0"
     inkscape:deskcolor="#d1d1d1"
     showgrid="false" />
  <g
     inkscape:groupmode="layer"
     id="layer1"
     inkscape:label="colisiones"
     transform="translate(-0.32946002,0.63928998)">
    <path
       d="m 626.18359,328.0918 v 1.93554 h -18.38867 v 15.48633 21.29102 h 21.29102 v 0.96875 h 27.09961 V 328.0918 Z"
       style="fill:#dc0000;fill-opacity:1;stroke:#000000;stroke-width:1.27858;stroke-linejoin:round;stroke-opacity:0;paint-order:markers fill stroke"
       id="path78" />
    <path
       d="m 511.01172,436.48828 v 75.49024 h 47.42383 v -75.49024 z"
       style="fill:#dc0000;fill-opacity:1;stroke:#000000;stroke-width:1.27858;stroke-linejoin:round;stroke-opacity:0;paint-order:markers fill stroke"
       id="path80" />
    <path
       d="m 321.31836,295.1875 v 8.70898 h -47.42383 v 18.38868 h -52.26172 v -18.38868 h -18.38867 -25.16406 v 46.45704 h 45.48828 v 16.45117 h 48.39062 v -17.41992 h 45.48829 v -17.41993 h 46.45507 5.80664 v -3.87304 h -2.90429 v -32.9043 z"
       style="fill:#dc0000;fill-opacity:1;stroke:#000000;stroke-width:1.27858;stroke-linejoin:round;stroke-opacity:0;paint-order:markers fill stroke"
       id="path77" />
    <path
       d="m 208.08203,193.56445 v 30.97071 16.45312 h 48.39063 v -47.42383 h -33.87305 z"
       style="fill:#dc0000;fill-opacity:1;stroke:#000000;stroke-width:1.27858;stroke-linejoin:round;stroke-opacity:0;paint-order:markers fill stroke"
       id="path76" />
    <path
       d="m 305.83203,129.68945 v 29.03321 h 0.96875 v 14.51757 h 44.51953 v -43.55078 h -17.41992 z"
       style="fill:#dc0000;fill-opacity:1;stroke:#000000;stroke-width:1.27858;stroke-linejoin:round;stroke-opacity:0;paint-order:markers fill stroke"
       id="path75" />
    <path
       d="m 224.53516,113.23633 v 45.48633 h 47.42382 v -45.48633 z"
       style="fill:#dc0000;fill-opacity:1;stroke:#000000;stroke-width:1.27858;stroke-linejoin:round;stroke-opacity:0;paint-order:markers fill stroke"
       id="path74" />
    <path
       d="M 705.54492,390.0332 V 458.75 h 15.48438 v -0.96875 H 752 V 390.0332 Z"
       style="fill:#dc0000;fill-opacity:1;stroke:#000000;stroke-width:1.27858;stroke-linejoin:round;stroke-opacity:0;paint-order:markers fill stroke"
       id="path79" />
    <path
       d="m 672.63867,478.10547 v 50.32617 h 48.39063 v -50.32617 z"
       style="fill:#dc0000;fill-opacity:1;stroke:#000000;stroke-width:1.27858;stroke-linejoin:round;stroke-opacity:0;paint-order:markers fill stroke"
       id="path81" />
    <path
       d="m 0.96875,0 v 753.93555 h 912.6582 V 0 Z m 190.66016,72.585937 h 96.7832 v 35.810543 h 7.74219 37.74609 V 74.523437 h 89.03906 343.57813 v 19.355469 13.548824 22.26172 h 3.87109 V 361.9668 h 44.51953 v 152.91601 h -47.42383 v 30.97071 h -45.48632 v 15.48437 H 623.2793 v -32.90625 h 1.93554 v -63.875 h 41.61719 V 458.75 h 3.87109 V 419.06836 H 622.31055 V 391.00195 H 588.4375 v -0.96875 h -12.58203 v 4.83985 h 0.96875 v 37.74414 79.36133 h 0.9668 v 78.39453 h 45.48828 v -8.71094 h 95.81445 v 27.09961 31.9375 h 0.96875 v 69.68359 h -47.42383 v -65.81054 h -94.84765 v 0.96679 H 505.20508 481.00977 V 436.48828 h -1.93555 v -41.61523 h 51.29297 v -15.48633 h 0.96875 v -45.48633 h 47.42383 v -3.87305 h -1.93555 v -44.51953 h 49.35937 v 15.48633 h 40.64844 5.80664 v 63.875 h 27.09961 v -0.9668 h 18.38867 v -72.58789 h -45.48828 v -32.90429 h -44.51953 v -30.97071 h 48.39063 v 8.70899 h 41.61718 V 132.5918 h -93.8789 V 114.20313 H 528.43164 V 97.75 h -97.75 v 31.93945 h -48.39062 v 43.55078 h 0.96679 v 35.81055 h -46.45508 v 48.39063 h 46.45508 v 33.87304 15.48633 h 94.84766 v 0.9668 h 47.42383 v 17.42187 h -47.42383 v 31.9375 h -46.45508 v 60.00586 h -51.29492 v 9.67774 h 0.9668 v 56.13476 h -44.51954 v 28.06641 H 96.783203 V 482.94531 H 48.390625 V 161.62695 h 0.96875 V 79.361328 H 145.17383 V 163.5625 H 96.783203 v 286.47656 h 43.550777 v 13.54883 h 163.5625 v -36.77734 h 47.42383 v -30.00196 h 0.96875 v -7.74218 H 328.0918 301.96094 v 24.19531 H 144.20508 v -46.45703 h 0.96875 V 207.11523 h 22.25976 23.22852 v -13.55078 h 0.9668 v -86.13672 z"
       style="fill:#dc0000;fill-opacity:1;stroke:#000000;stroke-width:1.27858;stroke-linejoin:round;stroke-opacity:0;paint-order:markers fill stroke"
       id="path72" />
  </g>
</svg>
