<?xml version="1.0" encoding="UTF-8" standalone="no"?>
<!-- Created with Inkscape (http://www.inkscape.org/) -->

<svg
   version="1.1"
   id="svg1"
   width="912"
   height="752"
   viewBox="0 0 912 752"
   xml:space="preserve"
   xmlns="http://www.w3.org/2000/svg"
   xmlns:svg="http://www.w3.org/2000/svg"><defs
     id="defs1" /><g
     id="layer1"
     transform="translate(10.178832,-0.2353141)"><path
       d="m 64.5,95.007812 v 34.453128 h 14.542969 v 14.76758 h 49.273441 v -17.74024 h -16.4375 V 95.007812 Z"
       style="fill:#00ff00;fill-opacity:1;stroke:none;stroke-width:1.33333;paint-order:markers fill stroke"
       id="path20" /><path
       d="m 702.66687,79.469689 v 16.197266 h -15 v 14.999995 h -16.19726 v 17.57032 h 17.62304 v -15 h 14.57422 v 15.75781 h 15.27149 v 47.18359 h 16.72851 v 15.48828 h -16.45508 v 17.0254 h 16.13867 v 14.9746 h -15.88085 v 16.68165 h 17.62304 v -16 h 16 v -16.11133 h 15.27344 v -16 h 0.0137 v -16.0586 h 0.0371 l -0.0625,-64.51172 H 752.69226 V 94.877892 L 721.09265,94.68258 V 79.469689 Z m 1.42578,16.767578 h 14.57422 v 15.429683 h -14.57422 z m 32.16406,96.837893 h 15 v 14.0332 h -15 z"
       style="fill:#00ff00;stroke-width:1.33333;paint-order:markers fill stroke"
       id="path4" /><path
       d="m 638.66687,463.21578 v 16.36328 l -14.96875,0.0879 v 17.26368 h 15.96875 v 13.73632 h -16 v 50.6543 h 48.78516 l 0.0137,-16.02539 h 16.04883 v -17.62891 h -16.15821 l 0.0371,-48 h -15.30078 v -16.45117 z m 0.80664,17.54492 h 15.96875 v 14.2754 h -15.96875 z"
       style="fill:#00ff00;stroke-width:1.33333;paint-order:markers fill stroke"
       id="path3" /><path
       d="m 559.66687,431.66695 v 80 h -32 v 16 h -14.57422 v -16 h -16 v -18 h -18.42578 v 17.57032 h 16 v 16.42968 h -15.94141 v 64.81641 h 16.91211 v 15.18359 h -16.9707 v 17.53711 h 18.42578 v -16.68359 h 15 v -16.16602 h 16.48242 v -15.75781 h 14.89454 v 15.92383 h 17.62304 v -16.3418 h 15.25586 V 559.66695 H 560.86218 V 544.2607 h 15.47266 V 431.66695 Z m -64.88281,97.72657 h 17.66211 v 13.54883 h -17.66211 z m 49.11719,31.69726 H 559.87 v 13.54883 h -15.96875 z"
       style="fill:#00ff00;stroke-width:1.33333;paint-order:markers fill stroke"
       id="path2" /><path
       d="m 303.68359,430.70508 v 33.11719 h -63.30273 v 14.42382 h -14.42578 v -14.08203 h -17.56836 v 15.91211 h -17.74024 v 15.91016 h -14.2539 v -16.25391 h -16.92969 v 14.93945 h -15.57617 v 18.3711 h 16.74805 V 496.1582 h 14.91015 v 16.88477 h 16.75977 v -15.22656 h 15.18359 v 14.94921 h 129.32813 l 0.16015,-32.13476 h 15.14453 V 463.82227 H 336.625 v -14.25391 h 15.63281 v -18.76563 h -17.72656 v 16.79493 H 320.2793 v -16.89258 z m -62.17074,49.87095 h 14.67382 v 15.10352 h -14.67382 z m -31.82253,0.0531 h 14.67382 v 15.10352 h -14.67382 z"
       style="fill:#00ff00;fill-opacity:1;stroke:none;stroke-width:1.33333;paint-order:markers fill stroke"
       id="path37" /><path
       d="m 319.46875,335.66602 v 15.57812 h -48.22461 v 16.42188 h -15.57812 v 17.57031 h 16 v 16 h 16.42578 v -17.4375 h 49.04297 v -14.5625 h -0.0859 -0.38281 v -0.13281 h 0.38281 0.0859 v 0.13281 h 13.53125 v 15 h 18.42578 v -17.57031 h -16 v -13.42969 h 15 v -17.57031 h -16.42578 v 16 H 337.0918 v -16 z m -47.44901,33.41311 h 14.67382 v 15.10352 h -14.67382 z"
       style="fill:#00ff00;fill-opacity:1;stroke:none;stroke-width:1.33333;paint-order:markers fill stroke"
       id="path35" /><path
       d="m 383.25586,303.25586 v 18.39062 h 15.99219 v 13.75196 h -15.99414 v 17.25 h 15.67968 v 16.32031 h 15.73243 v 16.26758 h 19.62304 v -17.57031 h -0.0137 v -15.01758 h 13.79102 V 337.6543 h 17.32226 v -18.40625 h -16.98242 v -15.99219 z"
       style="fill:#00ff00;fill-opacity:1;stroke:none;stroke-width:1.33333;paint-order:markers fill stroke"
       id="path36" /><path
       d="m 336.66602,271.66602 v 15.57031 h 16.42578 v -15.57031 z"
       style="fill:#00ff00;fill-opacity:1;stroke:none;stroke-width:1.33333;paint-order:markers fill stroke"
       id="path23" /><path
       d="m 159.66602,223.66602 v 14.3164 h -16.20899 v 19.56836 h 15.20899 v 13.83008 H 143.6875 l -0.33203,65.47266 h 15.31055 v 13.8125 h -15.31641 v 17.57031 h 16.31641 v 17 h 17.14257 v -17 h 16.28321 v -17.57031 h -16.17774 l -0.12304,-29.70704 H 306.6582 l 0.0508,-15.72265 h 14.38282 v -17.57031 l -14.32422,-0.0664 0.0508,-15.49609 h -51.71484 v 15.52734 h -30.10743 v -16.25 H 209.0918 v -16.71484 h -16 v -16.53907 h -15 v -14.46093 z m 1.42578,17.57031 h 13.57422 v 14.54883 l -13.57422,-0.10157 z m 15.82226,16.43359 13.75196,0.0215 v 13.68945 h -13.59571 z m -15.82226,94.56641 h 13.57422 v 15.42969 H 161.0918 Z"
       style="fill:#00ff00;fill-opacity:1;stroke:none;stroke-width:1.33333;paint-order:markers fill stroke"
       id="path34" /><path
       d="m 222.12695,95.426475 v 14.688755 h -14.99023 v 16.17383 h -15.92188 v 19.56836 l 16.41602,-0.0176 -0.0703,15.56641 h 15.82422 v 17.11133 h 17.75976 v 14.69922 h 13.52149 v 15.01953 h 17.25195 v 14.16211 H 255.2422 v 18.29492 h 18.42383 v -15.21875 h 12.8496 v 14.85547 h 18.42383 V 225.8867 h 32.5625 V 208.93164 L 384.4707,209.25 v -66.63672 h -14.11718 v -13.37695 h 14.73828 v -17.57031 h -18.42578 v 15.7539 h -15.2461 v 49.05664 h -45.89648 v -18.09179 h -0.0332 v -14.29102 h 0.0332 v -17.56836 h -16.95117 v -15.95898 h -18.42579 v 18.05468 h 17.50196 V 142.9043 H 270.9043 v 15.48047 h -44.91993 v -14.54688 h -16.34375 v -14.1543 h 15.91993 V 113.7207 h 14.99023 V 95.426475 Z M 288.3418,208.93164 h 14.67382 v 15.10352 H 288.3418 Z m -15.47299,-16.81787 h 14.67382 v 15.10352 h -14.67382 z"
       style="fill:#00ff00;fill-opacity:1;stroke:none;stroke-width:1.33333;paint-order:markers fill stroke"
       id="path31" /></g></svg>
